<svg xmlns="http://www.w3.org/2000/svg" viewBox="0 0 512 512"><defs><style>.cls-1{fill:#fff;}</style></defs><title>inst2</title><g id="Слой_2" data-name="Слой 2"><g id="Capa_1" data-name="Capa 1"><path class="cls-1" d="M256,213.76A42.24,42.24,0,1,0,298.24,256,42.28,42.28,0,0,0,256,213.76Z"/><path class="cls-1" d="M358.82,200A46.86,46.86,0,0,0,312,153.18H200A46.86,46.86,0,0,0,153.18,200V312A46.86,46.86,0,0,0,200,358.82H312A46.86,46.86,0,0,0,358.82,312h0ZM256,320.42A64.42,64.42,0,1,1,320.42,256,64.49,64.49,0,0,1,256,320.42Zm78.63-119.87a16.28,16.28,0,1,1,4.76-11.5A16.43,16.43,0,0,1,334.63,200.55Z"/><path class="cls-1" d="M256,0C114.62,0,0,114.62,0,256S114.62,512,256,512,512,397.38,512,256,397.39,0,256,0ZM381,312a69.07,69.07,0,0,1-69,69H200a69.07,69.07,0,0,1-69-69V200a69.07,69.07,0,0,1,69-69H312a69.07,69.07,0,0,1,69,69Z"/></g></g></svg>