<svg xmlns="http://www.w3.org/2000/svg" viewBox="0 0 512 512"><defs><style>.cls-1{fill:#fff;}</style></defs><title>twit2</title><g id="Слой_2" data-name="Слой 2"><g id="Capa_1" data-name="Capa 1"><path class="cls-1" d="M256,0C114.62,0,0,114.62,0,256S114.62,512,256,512,512,397.38,512,256,397.39,0,256,0ZM382.31,207.2l.21,8.17C382.52,298.8,319,395,202.89,395a178.47,178.47,0,0,1-96.78-28.41,134.19,134.19,0,0,0,15.06.87,126.67,126.67,0,0,0,78.41-27,63.17,63.17,0,0,1-59-43.85,60.6,60.6,0,0,0,11.89,1.17,64,64,0,0,0,16.64-2.21,63.2,63.2,0,0,1-50.64-61.91v-.79a63.14,63.14,0,0,0,28.6,7.92,63.21,63.21,0,0,1-19.54-84.28,179.25,179.25,0,0,0,130.12,66,63.17,63.17,0,0,1,107.58-57.56,127.28,127.28,0,0,0,40.12-15.33,63.4,63.4,0,0,1-27.75,34.91,126.08,126.08,0,0,0,36.25-9.94A126.08,126.08,0,0,1,382.31,207.2Z"/></g></g></svg>