<svg xmlns="http://www.w3.org/2000/svg" viewBox="0 0 512 512"><defs><style>.cls-1{fill:#fff;}</style></defs><title>vk2</title><g id="Слой_2" data-name="Слой 2"><g id="Capa_1" data-name="Capa 1"><g id="Слой_2-2" data-name="Слой 2"><g id="Capa_1-2" data-name="Capa 1"><path class="cls-1" d="M256,0C114.62,0,0,114.62,0,256S114.62,512,256,512,512,397.38,512,256,397.38,0,256,0ZM402.66,368.26l-44.9.64s-9.63,1.92-22.36-6.8c-16.79-11.55-32.63-41.48-44.95-37.56s-12.09,30.89-12.09,30.89a14.69,14.69,0,0,1-2.74,8.81,16.93,16.93,0,0,1-9.13,4H246.42s-44.36,2.69-83.37-38C120.47,285.94,82.87,198,82.87,198s-2.14-5.75,0-8.53,9.86-3.33,9.86-3.33l48-.32a21,21,0,0,1,7.76,3.15,15,15,0,0,1,4.15,5.61,322.26,322.26,0,0,0,18.25,37.37c20.08,34.68,29.39,42.26,36.23,38.56,9.9-5.43,6.94-49,6.94-49s0-15.83-5-22.82a22.82,22.82,0,0,0-14.92-7.48c-2.69-.37,1.73-6.62,7.48-9.45,8.62-4.24,23.91-4.56,41.94-4.29a86.34,86.34,0,0,1,23.59,2.33c16.56,4,11,19.44,11,56.49,0,11.86-2.14,28.57,6.43,34.09,3.7,2.37,12.69.37,35.18-37.88A292.65,292.65,0,0,0,338.37,193a14.15,14.15,0,0,1,4.56-5.43,11.45,11.45,0,0,1,6.53-1.14l50.56-.32s15.2-1.83,17.66,5-5.66,24-26.33,51.52c-33.91,45.18-37.69,41.07-9.54,67.08,26.88,25,32.44,37.1,33.36,38.61C426.12,366.84,402.66,368.26,402.66,368.26Z"/></g></g></g></g></svg>