<?xml version="1.0" encoding="UTF-8"?>
<svg enable-background="new 0 0 263.06 149.403" version="1.1" viewBox="0 0 263.06 149.403" xml:space="preserve" xmlns="http://www.w3.org/2000/svg">
<g fill="#ffffff">
	<path d="m121.98 5.208c12.82-7.04 29.9-5.08 40.83 4.63 2.65 2.15 1.9 6.88-1.37 8-2.99 1.31-5.45-1.58-7.73-3.05-6.35-4.41-14.6-6.63-22.19-4.52-6.81 1.58-13.06 6.79-14.6 13.79-1.76 7.58 2.99 16.33 10.69 18.26 2.87 0.92 5.92 0.39 8.71-0.57-2.68 3.23-6.33 5.85-10.63 6.2-7.23 0.89-13.79-4.6-16.12-11.14-4.67-11.73 1.74-25.64 12.41-31.6z"/>
	<path d="m104.62 6.038c1.53-2.26 3.76-5.04 6.87-4.26 3.32 0.71 4.77 5.05 2.47 7.6-3.99 5.05-7 11.04-7.56 17.54-0.56 8.53 3.56 17.97 11.75 21.47 7.73 3.56 18.02-0.62 20.75-8.75 1.31-3.16 0.84-6.61 0.02-9.82 3.36 3.17 6.2 7.38 5.99 12.19 0.09 7.44-6.2 13.45-13.05 15.26-12.38 3.62-26.22-4.1-31.04-15.77-4.87-11.43-3.46-25.35 3.8-35.46z"/>
	<path d="m130.67 12.178c12.1-3.84 25.88 3.24 31.12 14.51 5.91 12.57 3.94 28.69-5.39 39.1-2.15 3.05-7.63 1.9-8.23-1.84-0.69-2.05 0.92-3.84 2-5.41 5.53-7.07 8.38-16.87 5.26-25.57-2.17-7.24-8.9-13.56-16.77-13.3-9.83-0.34-18.44 10.45-14.25 19.83-3.04-2.78-5.88-6.23-6.11-10.54-1.1-7.78 5.23-14.74 12.37-16.78z"/>
	<path d="m126.76 27.378c2.96-3.44 7.07-6.06 11.73-6.11 7.12-0.27 13.16 5.38 15.28 11.86 4.12 11.49-2.04 24.9-12.39 30.78-12.85 7.24-30.16 5.32-41.13-4.54-2.51-1.95-1.94-6.35 0.9-7.68 1.9-1.08 4.22-0.37 5.76 1 5.57 4.36 12.48 7.52 19.69 7.08 7.48-0.24 15.19-4.24 18.47-11.18 3.31-6.74 0.85-15.67-5.46-19.76-3.7-2.65-8.62-2.88-12.85-1.45z"/>
	<path d="m14.64 77.288c0.6 0.07 1.81 0.21 2.42 0.28 6.38 23.18 12.63 46.39 19 69.57-0.58 0.21-1.74 0.64-2.32 0.85-3.71-13.07-7.06-26.25-10.87-39.29-5.22 0.11-10.44 0.06-15.66 0.04-1.43 4.13-2.74 8.31-4.04 12.48-0.67 0.02-2 0.05-2.67 0.06 4.69-14.67 9.46-29.31 14.14-43.99m1.1 4.97c-2.09 6.59-4.28 13.15-6.37 19.73 3.91-0.02 7.83-0.01 11.74-0.01-1.72-6.59-3.61-13.14-5.37-19.72z"/>
	<path d="m77.29 77.998c0.51-0.01 1.52-0.02 2.02-0.02 0.02 8.31 0 16.62 0 24.93 5.44-1.11 10.76-3.88 16.44-2.89 0.68 7.06 0.13 14.17 0.31 21.26l-1.98-0.07c-0.09-4.7 0.1-9.41-0.07-14.11 0.08-1.52-1.9-2.33-3.16-1.93-3.88 1-7.71 2.22-11.55 3.36 0.04 4.22 0.01 8.44 0.03 12.66-0.67 0.03-1.34 0.06-2.01 0.1-0.07-14.43 0-28.86-0.03-43.29z"/>
	<path d="m120.81 78.198c0.5 0.02 1.5 0.05 2 0.06-0.03 14.39 0.03 28.77-0.02 43.16-0.48-0.1-1.43-0.3-1.91-0.4-0.18-14.27-0.03-28.55-0.07-42.82z"/>
	<path d="m31.78 96.798c-0.07-1.6-0.32-3.49 1.85-3.27-0.04 0.83-0.11 2.49-0.15 3.32-0.43-0.01-1.27-0.03-1.7-0.05z"/>
	<path d="m31.74 99.778c0.62-0.03 1.24-0.04 1.87-0.06-0.18 7.07 0.17 14.14-0.16 21.19-0.82 1.32-1.72 0.34-1.62-0.86-0.13-6.75 0.09-13.51-0.09-20.27z"/>
	<path d="m37.53 99.908c0.38-0.12 1.15-0.36 1.54-0.48 0.08 0.89 0.25 2.67 0.34 3.56 2.95-1.57 6.42-5.09 9.88-2.67 0.96 2 0.37 4.38 0.58 6.52-1.92 0.31-2.56-1.99-4.27-2.15-2.27 1.08-4.28 2.61-6.34 4.03-0.18 4.43 0.71 9.02-0.55 13.34-0.82-0.83-1.21-1.82-1.16-2.95-0.03-6.4 0.03-12.8-0.02-19.2z"/>
	<path d="m164.91 99.518c0.47 0.1 1.41 0.28 1.87 0.37 0.07 16.29-0.01 32.58-0.01 48.87-4.98 0-9.95-0.03-14.92 0.02 3.62-9.67 7.26-19.33 10.97-28.97-3.53 1.57-8.07 1.75-11.15-0.86-4.67-4.77-4.5-13.77 1.19-17.71 3.74-2.74 9.02-1.67 12 1.7 0.01-0.86 0.04-2.56 0.05-3.42m-13.58 12.56c2.4 4.48 10.18 5.2 12.69 0.46 1.85-3.61-0.1-7.7-2.82-10.25-1.54-0.17-3.08-0.65-4.62-0.33-4.33 0.83-7.03 6.1-5.25 10.12m4.76 31.19c2.91-0.01 5.82-0.02 8.73-0.02-0.03-7.54 0.03-15.08-0.03-22.63-3.13 7.46-5.78 15.11-8.7 22.65z"/>
	<path d="m171.78 102.94c2.82-1.66 6.2-5.03 9.58-2.67 1.29 1.75 0.46 4.33 0.71 6.42-0.43 0.02-1.29 0.07-1.73 0.09-0.74-0.85-1.17-2.54-2.63-2.06-2.16 1.12-4.5 2.27-6.12 4.09-0.18 4.13 0.04 8.27-0.03 12.4-0.5 0.01-1.5 0.02-2 0.03 0.14-7.11-0.24-14.24 0.1-21.34 2.3-1.35 1.89 1.68 2.12 3.04z"/>
	<path d="m206.91 99.608c0.46 0.07 1.37 0.21 1.83 0.28 0.03 0.77 0.09 2.31 0.11 3.08 5.38-0.85 10.83-4.42 16.29-2.58 0.17 0.65 0.51 1.94 0.69 2.58 4.24-1.13 8.42-2.62 12.79-3.22 1.44-0.12 3.88 0.12 3.64 2.15 0.11 6.11 0 12.23 0.03 18.34 0.48 1.34-1.36 0.77-1.92 1.19-0.05-5.13 0-10.26-0.06-15.39-1.09-0.41-2.21-1.31-3.43-0.85-3.8 0.99-7.52 2.26-11.31 3.28-0.03 4.24-0.01 8.48-0.01 12.73-0.5 0.01-1.5 0.02-2 0.03 0-5.06 0.02-10.12-0.01-15.18-1.16-0.52-2.37-1.39-3.69-0.8-3.69 1.01-7.31 2.25-11.01 3.21-0.1 4.23-0.08 8.47-0.05 12.71-0.69 0.02-1.37 0.03-2.05 0.04 0.19-7.2-0.09-14.4 0.16-21.6z"/>
	<path d="m105.76 100.28c3.66-1.15 7.84 0.4 9.98 3.55 3.47 4.65 2.74 11.94-1.65 15.75-3.18 2.18-7.79 2.2-11.03 0.14-6.14-4.9-5.07-16.78 2.7-19.44m0.23 2.33c-3.58 1.64-5.67 6.23-3.85 9.88 2.65 4.94 11.01 4.61 13.25-0.53 2.1-5.37-3.89-11.98-9.4-9.35z"/>
	<path d="m132.84 100.45c4.38-1.79 9.54 0.79 11.48 4.94 2.18 4.31 1.33 9.94-1.83 13.55-3.13 2.8-8.15 2.95-11.69 0.88-6.14-4.82-5.3-16.13 2.04-19.37m1.03 2.04c-3.78 1.52-5.99 6.4-4.08 10.12 2.75 4.91 11.41 4.51 13.26-0.96 1.83-5.2-3.86-11.39-9.18-9.16z"/>
	<path d="m188.93 101.27c3.89-2.53 9.1-1.32 12.21 1.9-0.02-0.84-0.06-2.52-0.07-3.36l1.93-0.12c0.58 5.79-1.06 11.79 0.97 17.37 0.11 1.52 0.14 3.04 0.08 4.57-0.71-0.29-2.13-0.89-2.83-1.19-4.14 0.93-8.83 1.56-12.77-0.34-6.03-4.3-5.94-14.88 0.48-18.83m-0.74 3.51c-1.98 2.18-1.84 5.26-1.46 7.98 3.52 3.71 9.88 4.58 13.93 1.26 0.13-3.21 0.6-6.91-1.61-9.58-2.69-3.31-8.36-3.1-10.86 0.34z"/>
	<path d="m246.13 107.47c-1.62-3.13 1.03-7.11 4.4-7.44 3.64-0.47 7.33-0.17 10.99-0.3 0.01 1.85 0.03 3.71 0.05 5.56-4.23 0.55-9.41-1.6-12.84 1.65 3.69 3.42 9.68 3.04 12.99 7 2.07 2.54-0.02 6.56-3.12 6.91-4.04 0.7-8.17 0.27-12.25 0.36-0.01-1.81-0.02-3.61-0.03-5.41 4.05-0.14 8.12 0.21 12.16-0.2 0.44-0.33 1.32-0.99 1.75-1.32-4.32-3.07-10.19-3.15-14.1-6.81z"/>
</g>
</svg>
