<?xml version="1.0" encoding="UTF-8"?>
<svg enable-background="new 0 0 355.7 78.1" version="1.1" viewBox="0 0 355.7 78.1" xml:space="preserve" xmlns="http://www.w3.org/2000/svg">
<g fill="#c1c1c1">
	<path d="m26 5.7c12.8-7 29.9-5.1 40.8 4.6 2.6 2.2 1.9 6.9-1.4 8-3 1.3-5.4-1.6-7.7-3.1-6.4-4.4-14.6-6.6-22.2-4.5-6.8 1.6-13.1 6.8-14.6 13.8-1.8 7.6 3 16.3 10.7 18.3 2.9 0.9 5.9 0.4 8.7-0.6-2.7 3.2-6.3 5.8-10.6 6.2-7.2 0.9-13.8-4.6-16.1-11.1-4.7-11.8 1.7-25.7 12.4-31.6z"/>
	<path d="m8.6 6.5c1.5-2.3 3.8-5 6.9-4.3 3.3 0.7 4.8 5.1 2.5 7.6-4 5.1-7 11-7.6 17.5-0.6 8.5 3.6 18 11.8 21.5 7.7 3.6 18-0.6 20.8-8.8 1.3-3.2 0.8-6.6 0-9.8 3.4 3.2 6.2 7.4 6 12.2 0.1 7.4-6.2 13.5-13.1 15.3-12.4 3.6-26.2-4.1-31-15.8-4.9-11.4-3.5-25.3 3.7-35.4z"/>
	<path d="m34.7 12.6c12.1-3.8 25.9 3.2 31.1 14.5 5.9 12.6 3.9 28.7-5.4 39.1-2.1 3.1-7.6 1.9-8.2-1.8-0.7-2.1 0.9-3.8 2-5.4 5.5-7.1 8.4-16.9 5.3-25.6-2.2-7.2-8.9-13.6-16.8-13.3-9.8-0.3-18.4 10.5-14.3 19.8-3-2.8-5.9-6.2-6.1-10.5-1.1-7.8 5.2-14.7 12.4-16.8z"/>
	<path d="m30.8 27.8c3-3.4 7.1-6.1 11.7-6.1 7.1-0.3 13.2 5.4 15.3 11.9 4.1 11.5-2 24.9-12.4 30.8-12.9 7.2-30.2 5.3-41.1-4.5-2.5-2-1.9-6.3 0.9-7.7 1.9-1.1 4.2-0.4 5.8 1 5.6 4.4 12.5 7.5 19.7 7.1 7.4-0.3 15.1-4.3 18.4-11.3 3.3-6.7 0.9-15.7-5.5-19.8-3.7-2.6-8.6-2.8-12.8-1.4z"/>
	<path d="m106.2 3.6c0.6 0.1 1.8 0.2 2.4 0.3 6.4 23.2 12.6 46.4 19 69.6-0.6 0.2-1.7 0.6-2.3 0.9-3.7-13.1-7.1-26.3-10.9-39.3-5.2 0.1-10.4 0.1-15.7 0-1.4 4.1-2.7 8.3-4 12.5-0.7 0-2 0.1-2.7 0.1 4.7-14.7 9.5-29.4 14.2-44.1m1.1 5c-2.1 6.6-4.3 13.2-6.4 19.7h11.7c-1.7-6.6-3.6-13.1-5.3-19.7z"/>
	<path d="m168.8 4.3h2v24.9c5.4-1.1 10.8-3.9 16.4-2.9 0.7 7.1 0.1 14.2 0.3 21.3l-2-0.1c-0.1-4.7 0.1-9.4-0.1-14.1 0.1-1.5-1.9-2.3-3.2-1.9-3.9 1-7.7 2.2-11.6 3.4v12.7c-0.7 0-1.3 0.1-2 0.1 0.2-14.5 0.3-28.9 0.2-43.4z"/>
	<path d="m212.3 4.5c0.5 0 1.5 0.1 2 0.1v43.2c-0.5-0.1-1.4-0.3-1.9-0.4-0.2-14.3 0-28.6-0.1-42.9z"/>
	<path d="m123.3 23.1c-0.1-1.6-0.3-3.5 1.8-3.3 0 0.8-0.1 2.5-0.2 3.3-0.3 0.1-1.2 0.1-1.6 0z"/>
	<path d="m123.3 26.1c0.6 0 1.2 0 1.9-0.1-0.2 7.1 0.2 14.1-0.2 21.2-0.8 1.3-1.7 0.3-1.6-0.9-0.2-6.7 0.1-13.4-0.1-20.2z"/>
	<path d="m129.1 26.3c0.4-0.1 1.1-0.4 1.5-0.5 0.1 0.9 0.3 2.7 0.3 3.6 3-1.6 6.4-5.1 9.9-2.7 1 2 0.4 4.4 0.6 6.5-1.9 0.3-2.6-2-4.3-2.2-2.3 1.1-4.3 2.6-6.3 4-0.2 4.4 0.7 9-0.6 13.3-0.8-0.8-1.2-1.8-1.2-2.9 0.1-6.3 0.1-12.7 0.1-19.1z"/>
	<path d="m256.4 25.9c0.5 0.1 1.4 0.3 1.9 0.4 0.1 16.3 0 32.6 0 48.9h-14.9c3.6-9.7 7.3-19.3 11-29-3.5 1.6-8.1 1.8-11.1-0.9-4.7-4.8-4.5-13.8 1.2-17.7 3.7-2.7 9-1.7 12 1.7-0.1-0.9-0.1-2.6-0.1-3.4m-13.5 12.5c2.4 4.5 10.2 5.2 12.7 0.5 1.9-3.6-0.1-7.7-2.8-10.3-1.5-0.2-3.1-0.7-4.6-0.3-4.4 0.8-7.1 6.1-5.3 10.1m4.7 31.2h8.7v-22.6c-3.1 7.4-5.8 15.1-8.7 22.6z"/>
	<path d="m263.3 29.3c2.8-1.7 6.2-5 9.6-2.7 1.3 1.8 0.5 4.3 0.7 6.4-0.4 0-1.3 0.1-1.7 0.1-0.7-0.8-1.2-2.5-2.6-2.1-2.2 1.1-4.5 2.3-6.1 4.1-0.2 4.1 0 8.3 0 12.4h-2c0.1-7.1-0.2-14.2 0.1-21.3 2.2-1.3 1.8 1.7 2 3.1z"/>
	<path d="m298.4 26c0.5 0.1 1.4 0.2 1.8 0.3 0 0.8 0.1 2.3 0.1 3.1 5.4-0.8 10.8-4.4 16.3-2.6 0.2 0.7 0.5 1.9 0.7 2.6 4.2-1.1 8.4-2.6 12.8-3.2 1.4-0.1 3.9 0.1 3.6 2.2 0.1 6.1 0 12.2 0 18.3 0.5 1.3-1.4 0.8-1.9 1.2 0-5.1 0-10.3-0.1-15.4-1.1-0.4-2.2-1.3-3.4-0.9-3.8 1-7.5 2.3-11.3 3.3v12.7h-2v-15.2c-1.2-0.5-2.4-1.4-3.7-0.8-3.7 1-7.3 2.3-11 3.2-0.1 4.2-0.1 8.5-0.1 12.7h-2c0.3-7.1 0-14.3 0.2-21.5z"/>
	<path d="m197.3 26.6c3.7-1.2 7.8 0.4 10 3.6 3.5 4.7 2.7 11.9-1.7 15.8-3.2 2.2-7.8 2.2-11 0.1-6.1-4.9-5.1-16.8 2.7-19.5m0.2 2.4c-3.6 1.6-5.7 6.2-3.9 9.9 2.7 4.9 11 4.6 13.3-0.5 2.1-5.5-3.9-12.1-9.4-9.4z"/>
	<path d="m224.4 26.8c4.4-1.8 9.5 0.8 11.5 4.9 2.2 4.3 1.3 9.9-1.8 13.6-3.1 2.8-8.1 2.9-11.7 0.9-6.2-4.9-5.4-16.2 2-19.4m1 2c-3.8 1.5-6 6.4-4.1 10.1 2.8 4.9 11.4 4.5 13.3-1 1.8-5.1-3.9-11.3-9.2-9.1z"/>
	<path d="m280.5 27.6c3.9-2.5 9.1-1.3 12.2 1.9 0-0.8-0.1-2.5-0.1-3.4l1.9-0.1c0.6 5.8-1.1 11.8 1 17.4 0.1 1.5 0.1 3 0.1 4.6-0.7-0.3-2.1-0.9-2.8-1.2-4.1 0.9-8.8 1.6-12.8-0.3-6-4.4-6-14.9 0.5-18.9m-0.8 3.5c-2 2.2-1.8 5.3-1.5 8 3.5 3.7 9.9 4.6 13.9 1.3 0.1-3.2 0.6-6.9-1.6-9.6-2.6-3.3-8.3-3.1-10.8 0.3z"/>
	<path d="m337.7 33.8c-1.6-3.1 1-7.1 4.4-7.4 3.6-0.5 7.3-0.2 11-0.3v5.6c-4.2 0.6-9.4-1.6-12.8 1.7 3.7 3.4 9.7 3 13 7 2.1 2.5 0 6.6-3.1 6.9-4 0.7-8.2 0.3-12.3 0.4v-5.4c4-0.1 8.1 0.2 12.2-0.2 0.4-0.3 1.3-1 1.8-1.3-4.5-3.2-10.3-3.3-14.2-7z"/>
</g>
</svg>
